
<svg version="1.0" xmlns="http://www.w3.org/2000/svg"
 width="1742.000000pt" height="1582.000000pt" viewBox="0 0 1742.000000 1582.000000"
 preserveAspectRatio="xMidYMid meet">

<g transform="translate(0.000000,1582.000000) scale(0.100000,-0.100000)"
fill="#000000" stroke="none">
<path d="M4510 15122 c0 -17 -14 -19 -172 -25 -95 -4 -221 -7 -280 -7 -84 0
-108 -3 -108 -14 0 -15 -98 -26 -232 -26 -59 0 -78 -3 -78 -14 0 -15 -50 -26
-127 -26 -45 0 -53 -3 -53 -19 0 -17 -10 -20 -85 -26 -58 -5 -85 -11 -85 -20
0 -14 -43 -25 -96 -25 -22 0 -34 -5 -34 -14 0 -14 -29 -26 -67 -26 -16 0 -23
-6 -23 -20 0 -15 -9 -21 -40 -26 -23 -4 -40 -12 -40 -20 0 -8 -18 -15 -45 -20
-27 -4 -45 -12 -45 -19 0 -8 -17 -16 -40 -20 -30 -5 -40 -12 -40 -25 0 -13
-10 -20 -39 -25 -27 -4 -41 -13 -44 -26 -3 -11 -14 -19 -26 -19 -12 0 -21 -6
-21 -14 0 -9 -15 -17 -39 -21 -27 -4 -41 -13 -44 -26 -3 -11 -14 -19 -26 -19
-14 0 -21 -6 -21 -19 0 -15 -10 -21 -39 -26 -27 -4 -41 -13 -44 -26 -3 -10
-12 -19 -20 -19 -8 0 -17 -9 -20 -20 -3 -12 -14 -20 -26 -20 -15 0 -21 -6 -21
-21 0 -12 -8 -23 -19 -26 -11 -3 -21 -13 -24 -24 -3 -10 -12 -19 -20 -19 -8 0
-17 -9 -20 -20 -3 -11 -12 -20 -20 -20 -9 0 -17 -10 -19 -22 -2 -15 -11 -24
-24 -26 -12 -2 -24 -12 -27 -23 -3 -11 -14 -19 -26 -19 -12 0 -21 -6 -21 -15
0 -8 -6 -15 -14 -15 -8 0 -16 -10 -18 -22 -2 -15 -11 -24 -25 -26 -17 -3 -23
-10 -23 -28 0 -17 -6 -24 -19 -24 -14 0 -21 -10 -25 -35 -4 -20 -13 -35 -21
-35 -7 0 -15 -12 -17 -27 -2 -20 -9 -29 -25 -31 -15 -2 -23 -10 -23 -23 0 -12
-7 -19 -19 -19 -16 0 -21 -9 -27 -45 -4 -28 -11 -45 -20 -45 -8 0 -14 -9 -14
-20 0 -15 -7 -20 -25 -20 -23 0 -25 -4 -25 -41 0 -32 -4 -42 -20 -46 -15 -4
-20 -14 -20 -40 0 -26 -5 -36 -20 -40 -16 -4 -20 -14 -20 -45 0 -31 -4 -41
-19 -45 -14 -4 -21 -15 -23 -42 -2 -29 -8 -37 -25 -39 -20 -3 -23 -10 -23 -44
0 -31 -4 -41 -20 -45 -17 -5 -20 -14 -20 -65 0 -51 -3 -61 -20 -65 -16 -4 -20
-15 -22 -67 -3 -54 -6 -61 -24 -64 -19 -3 -23 -12 -29 -68 -5 -45 -11 -64 -21
-64 -11 0 -14 -16 -14 -67 0 -91 -10 -143 -26 -143 -10 0 -14 -23 -16 -87 -3
-81 -5 -88 -24 -91 -21 -3 -21 -7 -28 -386 -4 -210 -4 -480 0 -599 6 -196 9
-217 24 -217 15 0 19 -14 25 -85 5 -59 11 -85 20 -85 7 0 15 -18 19 -45 5 -28
12 -45 21 -45 9 0 16 -17 21 -45 5 -39 10 -45 30 -45 17 0 24 -6 24 -20 0 -11
7 -20 15 -20 8 0 15 -7 15 -16 0 -9 9 -18 19 -21 11 -3 21 -15 23 -27 2 -13
11 -22 26 -24 12 -2 22 -10 22 -19 0 -8 9 -17 19 -20 11 -3 21 -13 24 -24 3
-11 14 -19 26 -19 14 0 21 -6 21 -20 0 -13 7 -20 20 -20 13 0 20 -7 20 -20 0
-14 7 -20 21 -20 12 0 23 -8 26 -19 3 -13 17 -22 44 -26 22 -4 39 -12 39 -20
0 -7 18 -15 45 -19 34 -6 45 -12 45 -25 0 -20 35 -31 96 -31 22 0 34 -5 34
-14 0 -9 21 -15 68 -19 134 -13 222 -6 222 19 0 9 20 14 68 16 61 3 67 5 70
26 3 18 10 22 40 22 52 0 82 10 82 26 0 8 10 14 25 14 18 0 25 5 25 19 0 14
10 20 40 25 31 5 40 11 40 26 0 14 7 20 21 20 12 0 23 8 26 20 3 11 14 20 24
20 12 0 19 7 19 19 0 14 10 20 40 25 37 6 40 9 46 45 4 27 12 41 25 44 11 3
19 14 19 26 0 14 6 21 19 21 19 0 31 25 31 68 0 12 6 22 14 22 9 0 16 20 21
65 4 43 11 65 19 65 14 0 26 70 26 158 0 44 3 52 19 52 15 0 19 11 24 68 4 37
7 95 7 130 0 45 4 62 13 62 15 0 27 122 27 268 0 55 3 72 14 72 11 0 15 29 21
130 6 114 9 130 25 130 14 0 18 12 23 68 4 37 7 86 7 110 0 29 4 42 14 42 9 0
16 20 21 65 5 46 11 65 21 65 8 0 16 15 20 40 4 23 12 40 20 40 8 0 14 16 16
43 2 35 7 43 25 45 18 3 24 12 29 42 4 26 12 40 25 43 11 3 19 14 19 26 0 12
6 21 15 21 8 0 15 6 15 14 0 9 12 16 28 18 19 2 28 9 30 24 2 16 13 24 38 28
20 4 34 13 34 21 0 9 10 15 26 15 17 0 28 6 31 20 5 17 14 20 65 20 51 0 61 3
65 20 4 16 14 20 47 20 76 0 116 11 116 31 0 17 9 19 108 19 60 0 224 3 365 7
205 5 257 9 257 20 0 10 31 13 151 13 141 0 151 1 156 20 4 16 15 20 67 22 55
3 61 5 64 26 3 18 10 22 40 22 52 0 82 10 82 26 0 8 9 14 21 14 12 0 23 8 26
19 3 13 17 21 44 25 31 5 39 11 39 27 0 12 8 23 19 26 11 3 21 13 24 24 3 11
14 19 25 19 11 0 22 9 25 20 3 11 12 20 21 20 10 0 16 8 16 21 0 12 8 23 20
26 13 3 22 17 26 39 4 24 12 34 25 34 14 0 19 7 19 25 0 18 5 25 19 25 16 0
21 9 27 45 3 26 12 45 19 45 13 0 25 30 25 68 0 13 6 22 15 22 10 0 17 14 21
40 5 29 11 40 24 40 16 0 19 13 25 93 3 50 5 128 3 172 -3 74 -5 80 -25 83
-21 3 -23 9 -23 64 0 51 -3 61 -20 65 -15 4 -20 14 -20 40 0 26 -5 36 -19 40
-13 3 -21 17 -25 44 -5 30 -11 39 -26 39 -14 0 -20 7 -20 21 0 12 -8 23 -19
26 -11 3 -21 13 -24 24 -3 10 -12 19 -20 19 -9 0 -17 14 -21 40 -4 27 -11 40
-22 40 -9 0 -18 9 -21 19 -3 11 -15 21 -27 23 -13 2 -22 11 -24 26 -2 12 -10
22 -19 22 -8 0 -17 9 -20 20 -4 16 -14 20 -44 20 -32 0 -39 4 -39 19 0 13 -8
21 -22 23 -15 2 -24 11 -26 26 -3 19 -10 22 -44 22 -31 0 -41 4 -45 20 -5 17
-14 20 -65 20 -50 0 -61 3 -65 19 -4 17 -21 19 -239 26 -220 7 -234 8 -234 26
0 17 -9 19 -100 19 -90 0 -100 -2 -100 -18z"/>
<path d="M12390 15076 c0 -15 -98 -26 -227 -26 -66 0 -73 -2 -73 -20 0 -15 -7
-20 -24 -20 -18 0 -25 -6 -28 -22 -2 -19 -10 -24 -40 -26 -30 -3 -38 -7 -38
-23 0 -14 -7 -19 -25 -19 -16 0 -25 -6 -25 -16 0 -9 -9 -18 -20 -21 -11 -3
-20 -14 -20 -25 0 -11 -9 -22 -20 -25 -11 -3 -20 -14 -20 -24 0 -13 -7 -19
-24 -19 -20 0 -25 -6 -31 -40 -4 -22 -12 -40 -20 -40 -7 0 -15 -17 -19 -40 -4
-24 -12 -40 -20 -40 -9 0 -16 -17 -20 -45 -5 -27 -12 -45 -20 -45 -10 0 -16
-25 -21 -85 -6 -75 -9 -85 -26 -85 -18 0 -19 -10 -19 -215 0 -203 1 -215 19
-215 20 0 31 -40 31 -121 0 -38 4 -48 20 -52 16 -4 20 -14 20 -45 0 -31 4 -41
20 -45 12 -3 20 -14 20 -26 0 -12 6 -21 15 -21 10 0 17 -14 21 -40 5 -31 11
-40 26 -40 11 0 22 -9 25 -20 3 -11 12 -20 20 -20 8 0 17 -9 20 -19 3 -11 13
-21 24 -24 11 -3 19 -14 19 -25 0 -16 9 -22 39 -27 27 -4 41 -13 44 -26 3 -11
14 -19 26 -19 14 0 21 -6 21 -20 0 -17 7 -20 45 -20 37 0 45 -3 45 -19 0 -21
35 -31 110 -31 39 0 49 -4 53 -20 5 -19 14 -20 156 -20 120 0 151 -3 151 -13
0 -11 47 -15 227 -20 124 -4 277 -7 339 -7 109 0 113 -1 116 -22 3 -21 9 -23
84 -26 72 -2 83 -5 87 -22 4 -17 14 -20 65 -20 51 0 60 -3 65 -20 4 -16 14
-20 46 -20 31 0 41 -4 41 -16 0 -9 9 -18 19 -21 11 -3 21 -15 23 -27 2 -15 11
-22 31 -24 15 -2 27 -9 27 -16 0 -8 9 -16 20 -19 11 -3 20 -12 20 -20 0 -8 9
-17 20 -20 11 -3 20 -14 20 -25 0 -11 9 -22 20 -25 11 -3 20 -12 20 -20 0 -9
10 -17 23 -19 18 -2 23 -10 25 -44 2 -32 8 -43 23 -47 14 -4 19 -14 19 -40 0
-26 5 -36 20 -40 16 -4 20 -14 20 -45 0 -34 3 -41 23 -44 21 -3 22 -8 25 -104
2 -92 5 -102 22 -107 19 -5 20 -15 20 -306 0 -252 2 -301 14 -301 11 0 16 -31
21 -150 7 -133 10 -150 25 -150 18 0 30 -41 30 -101 0 -18 6 -28 20 -32 15 -4
20 -14 20 -40 0 -26 5 -36 20 -40 16 -4 20 -14 20 -46 0 -35 3 -41 21 -41 12
0 23 -8 26 -19 3 -11 13 -21 24 -24 11 -3 19 -14 19 -25 0 -11 9 -22 20 -25
12 -3 20 -14 20 -26 0 -14 6 -21 20 -21 13 0 20 -7 20 -20 0 -13 7 -20 20 -20
14 0 20 -7 20 -21 0 -12 8 -23 19 -26 11 -3 21 -13 24 -24 3 -11 14 -19 26
-19 14 0 21 -6 21 -20 0 -15 7 -20 25 -20 18 0 25 -5 25 -20 0 -13 7 -20 20
-20 13 0 20 -7 20 -20 0 -15 9 -21 39 -26 27 -4 41 -12 44 -25 3 -11 14 -19
26 -19 12 0 21 -6 21 -14 0 -10 16 -17 45 -22 34 -5 45 -11 45 -24 0 -20 36
-30 110 -30 40 0 49 -3 53 -21 5 -17 11 -20 29 -15 13 3 58 6 101 6 62 0 77 3
77 15 0 10 10 15 34 15 62 0 96 11 96 31 0 13 7 19 23 19 37 0 67 12 67 25 0
7 17 15 39 19 27 4 40 12 44 26 3 12 14 20 26 20 14 0 21 6 21 19 0 14 10 20
39 25 27 4 40 12 44 26 3 12 14 20 26 20 13 0 21 6 21 16 0 9 9 18 20 21 11 3
20 11 20 18 0 8 10 15 23 17 14 2 23 11 25 26 2 14 10 22 24 22 11 0 22 8 25
19 3 11 13 21 24 24 11 3 19 14 19 26 0 12 6 21 14 21 14 0 26 42 26 91 0 21
5 28 23 31 l22 3 3 495 c2 272 0 591 -3 708 -7 199 -8 212 -26 212 -18 0 -19
10 -19 153 0 196 -9 287 -26 287 -11 0 -14 18 -14 74 0 92 -8 136 -26 136 -9
0 -14 12 -14 34 0 60 -11 96 -30 96 -18 0 -30 41 -30 103 0 17 -5 27 -14 27
-10 0 -17 16 -22 45 -4 27 -12 45 -19 45 -8 0 -16 17 -20 40 -5 31 -11 40 -27
40 -11 0 -22 8 -25 20 -3 11 -11 20 -18 20 -7 0 -16 19 -19 44 -5 32 -12 45
-26 49 -11 3 -20 12 -20 21 0 9 -8 16 -19 16 -14 0 -20 10 -25 44 -5 32 -12
45 -26 49 -11 3 -20 12 -20 21 0 9 -7 16 -15 16 -9 0 -15 10 -15 26 0 17 -6
28 -19 31 -12 3 -21 17 -25 38 -5 25 -13 35 -29 37 -14 2 -23 11 -25 24 -2 12
-12 24 -23 27 -10 3 -19 12 -19 21 0 9 -7 16 -15 16 -8 0 -15 9 -15 20 0 15
-7 20 -25 20 -18 0 -25 5 -25 20 0 13 -7 20 -20 20 -15 0 -20 7 -20 26 0 17
-6 28 -19 31 -11 3 -21 13 -24 24 -3 11 -14 19 -26 19 -12 0 -21 6 -21 15 0 8
-9 15 -20 15 -15 0 -20 7 -20 25 0 19 -5 25 -21 25 -12 0 -23 8 -26 20 -3 11
-14 20 -25 20 -11 0 -22 8 -25 19 -3 12 -17 21 -39 26 -26 4 -34 11 -34 26 0
12 -8 23 -20 26 -11 3 -20 11 -20 18 0 7 -19 16 -45 19 -29 5 -45 12 -45 22 0
8 -9 14 -21 14 -12 0 -23 8 -26 19 -3 13 -17 21 -44 25 -30 5 -39 11 -39 26 0
15 -10 20 -45 26 -27 4 -45 12 -45 19 0 8 -17 16 -40 20 -24 4 -40 12 -40 20
0 9 -16 15 -47 17 -40 2 -49 7 -51 24 -3 18 -12 23 -63 28 -40 5 -59 11 -59
21 0 9 -23 15 -85 20 -62 5 -85 11 -85 21 0 9 -12 14 -32 14 -69 0 -108 12
-108 31 0 16 -8 19 -53 19 -111 0 -207 12 -207 26 0 11 -21 14 -88 14 -167 0
-302 12 -302 27 0 11 -82 13 -465 13 -384 0 -465 -2 -465 -14z"/>
<path d="M8977 11970 c-5 -19 -14 -20 -125 -20 -111 0 -120 -1 -125 -20 -4
-16 -14 -20 -45 -20 -34 0 -41 -3 -44 -22 -2 -19 -10 -24 -44 -26 -32 -2 -43
-8 -47 -23 -4 -14 -14 -19 -40 -19 -26 0 -36 -5 -40 -20 -3 -12 -14 -20 -26
-20 -15 0 -21 -6 -21 -21 0 -12 -8 -23 -19 -26 -11 -3 -21 -13 -24 -24 -3 -10
-12 -19 -21 -19 -9 0 -16 -7 -16 -16 0 -9 -9 -18 -19 -21 -15 -4 -21 -15 -23
-47 -2 -34 -7 -42 -25 -44 -13 -2 -23 -10 -23 -19 0 -8 -9 -17 -20 -20 -20 -5
-20 -16 -22 -972 l-3 -966 -1052 -3 c-1045 -2 -1053 -2 -1053 -22 0 -13 -7
-20 -19 -20 -13 0 -21 -8 -23 -22 -2 -19 -10 -24 -45 -26 -35 -3 -43 -7 -43
-23 0 -12 -7 -19 -19 -19 -10 0 -21 -9 -24 -20 -3 -12 -14 -20 -26 -20 -15 0
-21 -6 -21 -21 0 -12 -8 -23 -20 -26 -11 -3 -20 -14 -20 -24 0 -12 -7 -19 -19
-19 -15 0 -21 -10 -26 -40 -5 -29 -12 -40 -25 -40 -13 0 -19 -11 -24 -40 -4
-24 -12 -40 -20 -40 -9 0 -16 -17 -20 -45 -5 -27 -12 -45 -20 -45 -10 0 -16
-25 -21 -85 -5 -63 -10 -85 -21 -85 -12 0 -14 -37 -14 -215 0 -175 3 -215 14
-215 15 0 26 -50 26 -121 0 -38 4 -48 20 -52 16 -4 20 -14 20 -45 0 -31 4 -41
20 -45 12 -3 20 -14 20 -26 0 -14 6 -21 20 -21 15 0 21 -9 26 -39 4 -27 12
-41 25 -44 11 -3 19 -12 19 -20 0 -8 9 -17 20 -20 11 -3 20 -12 20 -20 0 -9
10 -17 23 -19 14 -2 23 -11 25 -25 2 -16 12 -24 37 -29 21 -4 35 -13 38 -25 3
-13 14 -19 31 -19 19 0 26 -5 26 -20 0 -17 7 -20 40 -20 33 0 40 -3 40 -20 0
-16 9 -20 59 -26 46 -5 60 -11 64 -25 3 -11 14 -19 26 -19 14 0 21 -6 21 -20
0 -17 7 -20 45 -20 41 0 45 -2 45 -25 l0 -25 885 0 885 0 0 -855 c0 -717 2
-855 14 -855 13 0 26 -48 26 -101 0 -18 6 -28 20 -32 15 -4 20 -14 20 -40 0
-29 4 -36 23 -39 18 -2 23 -10 25 -45 2 -31 8 -43 19 -43 8 0 17 -9 20 -19 3
-11 13 -21 24 -24 11 -3 19 -14 19 -25 0 -11 9 -22 20 -25 12 -3 20 -14 20
-26 0 -16 6 -21 25 -21 18 0 25 -5 25 -20 0 -11 7 -20 15 -20 9 0 15 -9 15
-21 0 -12 8 -23 19 -26 11 -3 21 -13 24 -24 3 -13 14 -19 31 -19 19 0 26 -5
26 -20 0 -13 7 -20 20 -20 13 0 20 -7 20 -20 0 -13 7 -20 20 -20 13 0 20 -7
20 -19 0 -15 10 -21 39 -26 27 -4 41 -13 44 -26 3 -11 14 -19 26 -19 12 0 21
-6 21 -14 0 -9 17 -16 45 -20 34 -6 45 -12 45 -25 0 -21 35 -31 110 -31 40 0
49 -3 53 -21 5 -17 11 -20 29 -15 13 3 60 6 106 6 66 0 82 3 82 15 0 10 10 15
28 15 61 0 102 12 102 30 0 13 11 19 40 24 24 4 40 12 40 20 0 9 17 16 44 20
32 5 45 12 49 26 3 11 12 20 21 20 9 0 16 8 16 19 0 14 10 20 44 25 32 5 45
12 49 26 3 11 12 20 20 20 8 0 17 9 20 20 3 11 12 20 21 20 9 0 16 6 16 14 0
9 12 16 28 18 19 2 28 9 30 26 2 12 10 22 19 22 8 0 17 9 20 19 3 11 13 21 24
24 11 3 19 14 19 26 0 14 6 21 19 21 19 0 31 34 31 90 0 19 6 29 20 33 20 5
20 14 20 1056 l0 1051 1098 2 1097 3 3 23 c3 18 10 22 39 22 26 0 36 5 40 20
4 16 14 20 45 20 31 0 41 4 45 19 4 14 15 21 42 23 29 2 37 8 39 26 2 14 10
22 24 22 11 0 22 8 25 19 3 11 13 21 24 24 15 4 19 14 19 45 0 31 4 41 20 45
15 4 20 14 20 40 0 29 4 36 23 39 18 2 23 10 25 44 2 32 8 43 23 47 10 3 19
12 19 20 0 8 9 17 20 20 19 5 20 14 20 216 0 204 -1 211 -20 211 -18 0 -20 7
-20 85 0 78 -2 85 -20 85 -18 0 -20 7 -20 65 0 63 -1 65 -25 65 -23 0 -25 4
-25 45 0 38 -3 45 -20 45 -13 0 -20 7 -20 20 0 13 -7 20 -20 20 -17 0 -20 7
-20 45 l0 45 -45 0 c-38 0 -45 3 -45 20 0 13 -7 20 -20 20 -13 0 -20 7 -20 20
0 17 -7 20 -45 20 -41 0 -45 2 -45 25 0 18 -5 25 -20 25 -13 0 -20 7 -20 20 0
17 -7 20 -45 20 -38 0 -45 3 -45 20 0 17 -7 20 -40 20 -36 0 -40 3 -40 25 l0
25 -1055 0 -1055 0 0 990 0 990 -25 0 c-22 0 -25 4 -25 40 0 33 -3 40 -20 40
-17 0 -20 7 -20 45 0 38 -3 45 -20 45 -13 0 -20 7 -20 20 0 15 -7 20 -25 20
-20 0 -25 5 -25 25 0 18 -5 25 -20 25 -13 0 -20 7 -20 20 0 18 -7 20 -65 20
-58 0 -65 2 -65 20 0 17 -7 20 -45 20 -41 0 -45 2 -45 25 0 18 -5 25 -20 25
-13 0 -20 7 -20 20 0 13 -7 20 -20 20 -13 0 -20 7 -20 20 0 19 -7 20 -239 20
-230 0 -239 -1 -244 -20z"/>
<path d="M15100 4956 c0 -11 -25 -16 -110 -21 -97 -7 -110 -10 -110 -26 0 -13
-11 -19 -45 -25 -26 -3 -45 -12 -45 -19 0 -13 -30 -25 -67 -25 -13 0 -23 -6
-23 -15 0 -8 -14 -17 -34 -20 -22 -5 -36 -14 -39 -26 -3 -13 -14 -19 -31 -19
-19 0 -26 -5 -26 -20 0 -12 -7 -20 -16 -20 -9 0 -18 -9 -21 -20 -3 -11 -12
-20 -20 -20 -8 0 -17 -9 -20 -20 -3 -11 -14 -20 -24 -20 -14 0 -19 -7 -19 -26
0 -17 -6 -28 -20 -31 -11 -3 -20 -12 -20 -20 0 -8 -9 -17 -20 -20 -11 -3 -20
-14 -20 -24 0 -12 -7 -19 -19 -19 -16 0 -20 -8 -23 -42 -2 -36 -7 -44 -25 -46
-20 -3 -23 -10 -23 -44 0 -31 -4 -41 -20 -45 -17 -5 -20 -14 -20 -60 0 -46 -3
-56 -20 -60 -16 -4 -20 -14 -20 -48 0 -86 -11 -135 -31 -135 -17 0 -19 -8 -19
-63 0 -144 -13 -277 -27 -277 -10 0 -13 -41 -13 -211 0 -201 -1 -211 -20 -216
-17 -4 -20 -15 -22 -87 -3 -75 -5 -81 -25 -84 -21 -3 -23 -9 -23 -64 0 -51 -3
-61 -20 -65 -16 -4 -20 -14 -20 -45 0 -31 -4 -41 -19 -45 -15 -4 -21 -15 -23
-47 -2 -34 -7 -42 -25 -44 -15 -2 -23 -10 -23 -23 0 -12 -7 -19 -19 -19 -14 0
-21 -10 -25 -35 -4 -21 -13 -35 -21 -35 -9 0 -15 -10 -15 -26 0 -17 -6 -28
-19 -31 -11 -3 -21 -13 -24 -24 -3 -11 -14 -19 -25 -19 -11 0 -22 -9 -25 -20
-3 -12 -14 -20 -26 -20 -14 0 -21 -6 -21 -19 0 -19 -25 -31 -67 -31 -13 0 -23
-6 -23 -14 0 -17 -31 -26 -87 -26 -30 0 -43 -4 -43 -14 0 -20 -88 -26 -396
-26 -267 0 -274 0 -274 -20 0 -18 -7 -20 -73 -20 -159 0 -317 -13 -317 -25 0
-9 -29 -15 -90 -20 -65 -5 -90 -11 -90 -20 0 -9 -18 -16 -45 -21 -34 -5 -45
-11 -45 -25 0 -13 -11 -19 -45 -25 -28 -4 -45 -11 -45 -20 0 -8 -16 -16 -40
-20 -23 -4 -40 -12 -40 -19 0 -8 -17 -16 -39 -20 -36 -6 -40 -10 -46 -45 -4
-26 -13 -40 -26 -43 -10 -3 -19 -12 -19 -21 0 -9 -8 -16 -20 -16 -14 0 -20 -7
-20 -21 0 -12 -8 -23 -20 -26 -16 -4 -20 -14 -20 -45 0 -31 -4 -41 -20 -45
-11 -3 -20 -14 -20 -24 0 -12 -7 -19 -20 -19 -17 0 -19 -8 -22 -88 -3 -82 -4
-87 -25 -90 l-23 -3 0 -300 c0 -286 1 -299 19 -299 20 0 31 -34 31 -96 0 -23
5 -34 14 -34 9 0 17 -15 21 -40 4 -23 12 -40 20 -40 8 0 16 -17 20 -39 4 -27
13 -41 26 -44 10 -3 19 -12 19 -20 0 -9 10 -17 23 -19 14 -2 23 -11 25 -25 2
-16 12 -23 43 -28 23 -4 39 -12 39 -20 0 -9 17 -16 45 -21 27 -4 45 -11 45
-20 0 -8 18 -15 45 -20 34 -5 45 -11 45 -24 0 -14 12 -18 61 -24 34 -3 82 -6
105 -6 30 0 44 -4 44 -14 0 -22 100 -26 620 -26 520 0 620 4 620 26 0 11 25
14 119 14 146 0 181 6 181 31 0 17 9 19 86 19 77 0 86 2 91 20 5 18 14 20 90
20 76 0 85 2 90 20 4 16 15 20 67 22 55 3 61 5 64 26 2 15 10 22 26 22 45 0
86 13 86 26 0 10 14 14 46 14 37 0 47 4 51 19 4 15 15 21 47 23 33 2 42 7 44
24 2 16 13 24 38 28 20 4 34 13 34 21 0 9 10 15 26 15 17 0 28 6 31 19 4 14
15 21 42 23 28 2 37 8 39 24 2 17 12 23 43 28 26 4 39 11 39 22 0 9 9 18 20
21 11 3 20 12 20 19 0 8 9 14 21 14 12 0 23 8 26 19 3 11 15 21 27 23 13 2 22
11 24 26 2 14 10 22 23 22 12 0 19 7 19 19 0 15 10 21 40 26 37 6 40 10 46 46
5 29 11 39 25 39 12 0 19 7 19 20 0 13 7 20 20 20 13 0 20 7 20 19 0 13 8 21
23 23 14 2 23 11 25 24 2 12 12 24 23 27 11 3 19 14 19 26 0 12 6 21 14 21 7
0 16 9 19 20 3 12 14 20 25 20 16 0 22 9 27 40 5 30 11 40 26 40 14 0 19 7 19
25 0 15 6 25 14 25 7 0 16 9 19 20 3 11 12 20 20 20 11 0 18 14 23 45 5 34 11
45 24 45 10 0 20 9 23 20 3 11 12 20 20 20 11 0 18 14 23 45 3 26 12 45 19 45
7 0 15 9 18 20 3 12 14 20 25 20 17 0 22 9 28 45 3 26 12 45 19 45 13 0 25 30
25 68 0 12 6 22 14 22 9 0 16 19 20 60 6 49 10 60 25 60 20 0 31 35 31 96 0
22 5 34 14 34 17 0 26 51 26 148 0 54 3 72 14 72 17 0 26 90 26 263 0 117 1
127 18 127 17 0 19 14 25 188 9 237 9 1135 1 1185 -5 27 -11 37 -25 37 -17 0
-19 8 -19 66 0 56 -3 67 -19 71 -12 3 -21 17 -25 38 -4 21 -14 35 -26 38 -12
3 -20 14 -20 26 0 15 -6 21 -21 21 -12 0 -23 8 -26 20 -3 11 -12 20 -20 20 -8
0 -17 9 -20 19 -3 13 -17 22 -44 26 -29 5 -39 11 -39 26 0 13 -7 19 -21 19
-12 0 -23 8 -26 20 -3 11 -12 20 -20 20 -8 0 -17 9 -20 20 -4 16 -14 20 -45
20 -31 0 -41 4 -45 19 -4 14 -15 21 -42 23 -29 2 -37 8 -39 26 -3 20 -8 22
-75 22 -96 0 -147 9 -147 26 0 10 -16 14 -60 14 -45 0 -60 -4 -60 -14z"/>
<path d="M2220 4911 c0 -17 -11 -20 -90 -26 -62 -5 -90 -11 -90 -20 0 -14 -43
-25 -96 -25 -23 0 -34 -5 -34 -15 0 -9 -14 -17 -39 -21 -27 -4 -41 -12 -44
-25 -3 -11 -14 -19 -26 -19 -14 0 -21 -6 -21 -20 0 -14 -9 -21 -35 -26 -25 -4
-35 -11 -35 -25 0 -14 -7 -19 -25 -19 -18 0 -25 -5 -25 -20 0 -13 -7 -20 -20
-20 -15 0 -20 -7 -20 -25 0 -18 -5 -25 -19 -25 -16 0 -20 -8 -23 -37 -2 -31
-7 -39 -25 -41 -20 -3 -23 -10 -23 -44 0 -31 -4 -41 -20 -45 -16 -4 -20 -14
-20 -45 0 -31 -4 -41 -20 -45 -17 -5 -20 -14 -20 -72 0 -98 -9 -141 -30 -141
-15 0 -17 -25 -23 -277 -4 -153 -4 -403 0 -555 6 -252 8 -278 23 -278 14 0 18
-14 24 -77 3 -42 6 -109 6 -150 0 -55 3 -73 14 -73 14 0 26 -49 26 -107 0 -21
5 -33 14 -33 10 0 16 -23 21 -85 6 -72 9 -85 25 -85 18 0 30 -40 30 -102 0
-17 5 -28 14 -28 9 0 16 -17 20 -45 5 -28 12 -45 21 -45 8 0 16 -16 20 -40 5
-30 11 -40 25 -40 16 0 20 -11 26 -59 5 -46 11 -60 25 -64 13 -3 19 -14 19
-31 0 -16 6 -26 14 -26 9 0 17 -15 21 -40 4 -23 12 -40 20 -40 8 0 16 -17 20
-39 5 -31 12 -41 28 -43 14 -2 23 -11 25 -25 2 -13 9 -23 17 -23 8 0 16 -16
20 -39 4 -27 13 -41 26 -44 11 -3 19 -14 19 -26 0 -16 6 -21 25 -21 18 0 25
-5 25 -20 0 -11 7 -20 15 -20 9 0 15 -9 15 -21 0 -12 8 -23 20 -26 13 -3 22
-17 26 -39 4 -24 12 -34 28 -36 13 -2 22 -11 24 -26 2 -12 10 -22 19 -22 8 0
17 -9 20 -19 3 -11 13 -21 24 -24 10 -3 19 -12 19 -20 0 -9 10 -17 23 -19 14
-2 23 -11 25 -24 2 -12 12 -24 23 -27 10 -3 19 -12 19 -20 0 -8 9 -17 20 -20
11 -3 20 -12 20 -20 0 -8 9 -17 20 -20 12 -3 20 -14 20 -25 0 -16 9 -22 39
-27 27 -4 41 -13 44 -26 3 -11 14 -19 26 -19 12 0 21 -6 21 -15 0 -9 9 -15 21
-15 12 0 23 -8 26 -20 3 -13 17 -22 39 -26 24 -4 34 -12 36 -28 2 -15 11 -22
31 -24 15 -2 27 -9 27 -16 0 -8 9 -16 20 -19 11 -3 20 -12 20 -20 0 -11 14
-18 45 -23 34 -5 45 -11 45 -24 0 -10 9 -20 20 -23 11 -3 20 -12 20 -20 0 -10
14 -18 40 -22 23 -4 40 -12 40 -20 0 -7 18 -15 45 -19 36 -6 45 -11 45 -27 0
-15 7 -19 34 -19 53 0 96 -11 96 -25 0 -14 43 -25 96 -25 22 0 34 -5 34 -14 0
-13 84 -26 173 -26 29 0 37 -4 37 -18 0 -17 12 -20 98 -25 53 -4 141 -7 195
-7 74 0 97 -3 97 -13 0 -20 228 -27 833 -27 490 0 499 0 504 20 4 14 14 20 33
20 56 0 90 12 90 31 0 14 7 19 25 19 18 0 25 5 25 19 0 15 10 21 40 26 26 4
40 12 40 22 0 8 9 17 20 20 11 3 20 14 20 25 0 11 8 22 19 25 11 3 21 13 24
24 3 11 14 19 26 19 13 0 21 6 21 16 0 9 9 18 20 21 11 3 20 14 20 25 0 11 9
22 20 25 11 3 20 12 20 20 0 8 9 17 19 20 11 3 21 13 24 24 3 11 14 19 25 19
17 0 22 9 28 45 3 26 12 45 19 45 7 0 15 9 18 20 3 11 12 20 20 20 12 0 17 19
22 85 6 74 10 85 26 85 17 0 19 8 19 85 0 78 -2 85 -20 85 -19 0 -20 7 -20
106 0 97 -2 106 -20 111 -17 5 -20 14 -20 65 0 51 -3 61 -19 65 -15 4 -21 15
-23 47 -2 34 -7 42 -25 44 -19 3 -23 10 -23 39 0 26 -5 36 -19 40 -13 3 -21
17 -25 44 -4 25 -12 39 -21 39 -8 0 -15 9 -15 20 0 13 -7 20 -20 20 -15 0 -20
7 -20 25 0 20 -5 25 -26 25 -17 0 -28 6 -31 19 -3 11 -13 21 -24 24 -10 3 -19
12 -19 21 0 12 -10 16 -41 16 -32 0 -42 4 -46 19 -4 14 -15 21 -42 23 -29 2
-37 8 -39 26 -3 19 -10 22 -44 22 -31 0 -41 4 -45 20 -5 17 -14 20 -65 20 -51
0 -61 3 -65 20 -5 18 -14 20 -93 20 -48 0 -135 3 -193 7 -95 5 -107 8 -107 25
0 17 -14 18 -262 18 -282 0 -338 5 -338 26 0 11 -22 14 -101 14 -92 0 -101 2
-106 20 -4 14 -14 20 -32 20 -62 0 -101 12 -101 31 0 13 -7 19 -21 19 -12 0
-23 8 -26 20 -4 15 -14 20 -40 20 -26 0 -36 5 -40 19 -3 11 -15 21 -27 23 -13
2 -22 11 -24 26 -2 12 -10 22 -18 22 -8 0 -14 9 -14 21 0 12 -8 23 -19 26 -11
3 -21 13 -24 24 -3 11 -14 19 -26 19 -18 0 -21 6 -21 41 0 32 -4 42 -20 46
-15 4 -20 14 -20 40 0 26 -5 36 -20 40 -17 5 -20 14 -20 65 0 51 -3 61 -20 65
-17 4 -20 15 -22 87 -3 75 -5 81 -25 84 -22 3 -23 8 -23 96 0 111 -8 156 -26
156 -11 0 -14 28 -14 138 0 158 -7 212 -26 212 -11 0 -14 25 -14 119 0 146 -6
181 -31 181 -17 0 -19 9 -19 93 0 115 -8 167 -26 167 -10 0 -14 15 -14 54 0
73 -10 116 -26 116 -10 0 -14 13 -14 45 0 41 -2 45 -25 45 -18 0 -25 5 -25 20
0 14 -7 20 -21 20 -12 0 -23 8 -26 19 -3 11 -13 21 -24 24 -11 3 -19 14 -19
26 0 18 -6 21 -41 21 -32 0 -42 4 -46 20 -4 15 -14 20 -40 20 -26 0 -36 5 -40
20 -5 17 -14 20 -65 20 -51 0 -61 3 -65 20 -5 18 -14 20 -77 20 -106 0 -146 9
-146 31 0 18 -10 19 -125 19 -116 0 -125 -1 -125 -19z"/>
</g>
</svg>
