<svg version="1.0" xmlns="http://www.w3.org/2000/svg"
 width="342.000000pt" height="1202.000000pt" viewBox="0 0 342.000000 1202.000000"
 preserveAspectRatio="xMidYMid meet">

<g transform="translate(0.000000,1202.000000) scale(0.100000,-0.100000)"
fill="#000000" stroke="none">
<path d="M1560 11676 c0 -13 -84 -26 -177 -26 -31 0 -43 -4 -43 -14 0 -10 -16
-17 -45 -22 -35 -5 -45 -10 -45 -25 0 -14 -7 -19 -29 -19 -54 0 -89 -12 -94
-31 -4 -15 -14 -19 -45 -19 -31 0 -41 -4 -45 -20 -3 -12 -14 -20 -26 -20 -14
0 -21 -6 -21 -20 0 -15 -9 -21 -40 -26 -26 -4 -40 -12 -40 -21 0 -8 -9 -17
-19 -20 -11 -3 -21 -13 -24 -24 -3 -11 -14 -19 -26 -19 -14 0 -21 -6 -21 -20
0 -14 -7 -20 -21 -20 -12 0 -23 -8 -26 -19 -3 -11 -13 -21 -24 -24 -10 -3 -19
-12 -19 -21 0 -9 -6 -16 -14 -16 -8 0 -16 -10 -18 -22 -2 -15 -11 -24 -25 -26
-15 -2 -23 -10 -23 -24 0 -11 -8 -22 -19 -25 -12 -3 -21 -17 -26 -39 -3 -20
-12 -34 -20 -34 -10 0 -15 -10 -15 -30 0 -23 -4 -30 -20 -30 -15 0 -20 -7 -20
-29 0 -55 -12 -91 -30 -91 -19 0 -30 -36 -30 -96 0 -22 -5 -34 -14 -34 -9 0
-16 -17 -20 -45 -5 -27 -12 -45 -21 -45 -16 0 -23 -200 -17 -472 4 -142 7
-178 18 -178 8 0 16 -16 20 -40 4 -24 12 -40 20 -40 9 0 14 -11 14 -27 0 -63
12 -103 31 -103 13 0 19 -11 25 -45 4 -28 11 -45 20 -45 8 0 16 -16 20 -39 4
-27 12 -41 25 -44 11 -3 19 -14 19 -26 0 -12 6 -21 15 -21 8 0 17 -14 21 -34
4 -25 12 -36 28 -38 13 -2 22 -11 24 -24 2 -12 12 -24 23 -27 11 -3 19 -14 19
-26 0 -12 6 -21 14 -21 7 0 16 -9 19 -20 3 -14 14 -20 31 -20 21 0 26 -5 26
-25 0 -18 5 -25 20 -25 11 0 20 -6 20 -14 0 -7 9 -16 20 -19 11 -3 20 -12 20
-20 0 -10 15 -17 45 -21 39 -6 45 -10 45 -32 0 -21 4 -24 39 -24 30 0 40 -4
44 -20 3 -12 14 -20 26 -20 12 0 21 -6 21 -14 0 -9 15 -17 40 -21 29 -5 40
-12 40 -25 0 -19 35 -30 96 -30 22 0 34 -5 34 -14 0 -13 48 -26 103 -26 17 0
27 -5 27 -15 0 -13 35 -15 255 -15 220 0 255 2 255 15 0 10 10 15 34 15 54 0
96 11 96 26 0 10 13 14 43 14 60 0 87 10 87 30 0 13 11 19 40 24 26 4 40 11
40 21 0 9 10 15 26 15 17 0 28 6 31 19 4 14 15 21 42 23 28 2 37 8 39 24 2 17
12 23 43 28 26 4 39 11 39 22 0 9 9 18 20 21 11 3 20 12 20 19 0 8 10 14 25
14 20 0 25 5 25 24 0 18 6 25 23 28 14 2 23 11 25 26 2 14 10 22 23 22 12 0
19 7 19 20 0 13 7 20 20 20 14 0 20 7 20 21 0 12 8 23 20 26 12 3 22 17 26 38
4 21 13 35 25 38 11 3 19 14 19 26 0 12 6 21 14 21 9 0 17 15 21 40 5 30 11
40 25 40 15 0 20 10 26 45 3 26 12 45 19 45 14 0 25 43 25 96 0 23 5 34 14 34
10 0 17 16 22 45 5 33 11 45 24 45 15 0 18 16 23 128 9 161 9 290 0 415 -5 83
-9 97 -23 97 -13 0 -19 12 -24 45 -5 29 -12 45 -22 45 -11 0 -14 15 -14 61 0
52 -3 62 -20 66 -15 4 -21 17 -26 64 -5 49 -10 58 -28 61 -15 2 -22 11 -24 31
-2 15 -9 27 -17 27 -7 0 -16 15 -19 34 -4 22 -13 36 -26 39 -12 3 -20 14 -20
26 0 12 -6 21 -15 21 -8 0 -15 9 -15 20 0 15 -7 20 -25 20 -19 0 -25 5 -25 21
0 12 -8 23 -19 26 -11 3 -21 13 -24 24 -3 10 -12 19 -21 19 -9 0 -16 8 -16 20
0 15 -7 20 -25 20 -18 0 -25 5 -25 20 0 14 -7 20 -21 20 -12 0 -23 8 -26 19
-3 13 -17 22 -44 26 -29 5 -39 11 -39 26 0 13 -7 19 -21 19 -12 0 -23 8 -26
20 -4 14 -14 20 -33 20 -53 0 -88 12 -93 31 -4 14 -14 19 -41 19 -29 0 -36 4
-36 19 0 15 -10 20 -50 25 -34 5 -50 11 -50 21 0 11 -12 15 -42 15 -94 0 -178
13 -178 26 0 11 -33 14 -165 14 -132 0 -165 -3 -165 -14z"/>
<path d="M1533 8163 c-52 -3 -73 -8 -73 -17 0 -14 -68 -26 -152 -26 -41 0 -48
-3 -48 -20 0 -15 -7 -20 -26 -20 -17 0 -28 -6 -31 -19 -3 -13 -17 -22 -44 -26
-22 -4 -39 -12 -39 -20 0 -13 -30 -25 -67 -25 -16 0 -23 -6 -23 -20 0 -14 -9
-21 -35 -26 -25 -4 -35 -11 -35 -25 0 -14 -7 -19 -25 -19 -18 0 -25 -5 -25
-20 0 -13 -7 -20 -20 -20 -12 0 -20 -7 -20 -16 0 -9 -9 -18 -19 -21 -11 -3
-21 -15 -23 -27 -2 -13 -11 -22 -25 -24 -13 -2 -23 -10 -23 -19 0 -8 -9 -17
-20 -20 -11 -3 -20 -14 -20 -24 0 -12 -7 -19 -19 -19 -14 0 -20 -10 -25 -40
-5 -31 -11 -40 -26 -40 -14 0 -20 -7 -20 -21 0 -12 -8 -23 -19 -26 -14 -3 -21
-17 -26 -49 -4 -27 -11 -44 -20 -44 -8 0 -16 -16 -20 -40 -4 -24 -12 -40 -20
-40 -10 0 -16 -19 -21 -60 -5 -48 -10 -60 -24 -60 -13 0 -19 -12 -24 -50 -4
-31 -12 -50 -20 -50 -23 0 -26 -323 -26 -3010 0 -2687 3 -3010 26 -3010 8 0
16 -19 20 -50 5 -40 10 -50 25 -50 16 0 19 -8 19 -49 0 -73 10 -109 31 -114
15 -4 19 -14 19 -45 0 -31 4 -41 20 -45 12 -3 20 -14 20 -26 0 -12 6 -21 14
-21 8 0 17 -15 20 -34 5 -26 12 -36 29 -38 16 -2 23 -11 25 -30 2 -16 9 -28
18 -28 8 0 14 -7 14 -16 0 -9 9 -18 19 -21 13 -3 22 -17 26 -44 5 -30 11 -39
27 -39 11 0 22 -8 25 -20 3 -12 17 -22 38 -26 21 -4 35 -13 38 -25 3 -11 14
-19 25 -19 14 0 22 -8 24 -22 2 -15 11 -24 26 -26 12 -2 22 -10 22 -18 0 -8
15 -16 39 -20 27 -4 41 -12 44 -25 4 -14 14 -19 40 -19 26 0 36 -5 40 -20 3
-12 14 -20 26 -20 14 0 21 -6 21 -19 0 -16 11 -20 85 -26 59 -5 85 -11 85 -20
0 -16 45 -25 121 -25 43 0 59 -4 59 -14 0 -9 21 -15 68 -19 154 -15 362 -4
362 19 0 10 15 14 54 14 73 0 116 10 116 26 0 9 12 14 34 14 61 0 96 11 96 31
0 13 11 19 45 25 28 4 45 11 45 20 0 9 12 14 36 14 27 0 37 5 41 19 3 14 17
21 49 26 26 4 44 11 44 19 0 8 9 16 20 19 12 3 20 14 20 26 0 16 6 21 25 21
18 0 25 5 25 19 0 13 10 21 34 25 22 4 36 13 39 26 3 12 14 20 25 20 16 0 22
9 27 39 4 27 13 41 26 44 10 3 19 12 19 20 0 8 9 17 20 20 14 3 20 14 20 31 0
16 6 26 15 26 8 0 17 14 21 35 4 25 11 35 25 35 13 0 19 7 19 21 0 12 8 23 20
26 15 4 21 17 26 63 5 45 11 59 25 63 16 4 19 15 19 66 0 53 2 61 19 61 19 0
31 39 31 103 0 16 5 27 13 27 10 0 16 26 20 97 9 129 9 5614 0 5771 -4 89 -10
122 -19 122 -7 0 -16 19 -20 45 -5 35 -10 45 -25 45 -17 0 -19 8 -19 60 0 53
-2 60 -20 60 -14 0 -20 7 -20 23 0 37 -12 67 -26 67 -8 0 -15 18 -20 45 -5 35
-10 45 -25 45 -13 0 -19 7 -19 21 0 12 -8 23 -20 26 -14 4 -22 17 -26 44 -4
25 -12 39 -21 39 -8 0 -17 9 -20 20 -3 11 -12 20 -20 20 -8 0 -17 9 -20 19 -3
11 -15 21 -27 23 -13 2 -22 11 -24 26 -2 12 -10 22 -19 22 -8 0 -17 9 -20 20
-4 14 -17 22 -43 26 -33 6 -39 10 -44 39 -6 28 -12 34 -41 39 -25 5 -35 12
-35 25 0 14 -10 20 -45 25 -28 5 -45 12 -45 21 0 9 -17 16 -45 21 -27 4 -45
11 -45 19 0 8 -10 15 -22 17 -15 2 -24 11 -26 26 -3 20 -8 22 -71 22 -85 0
-131 9 -131 25 0 21 -280 30 -547 18z"/>
</g>
</svg>
