
<svg version="1.0" xmlns="http://www.w3.org/2000/svg"
 width="126.000000pt" height="128.000000pt" viewBox="0 0 126.000000 128.000000"
 preserveAspectRatio="xMidYMid meet">

<g transform="translate(0.000000,128.000000) scale(0.100000,-0.100000)"
fill="#000000" stroke="none">
<path d="M186 1205 c-88 -31 -146 -121 -146 -229 0 -58 3 -70 25 -91 29 -30
64 -32 96 -6 18 14 24 32 30 87 9 86 27 104 106 104 44 0 58 5 78 25 14 13 25
36 25 50 0 14 -11 37 -25 50 -21 21 -33 25 -87 25 -35 -1 -80 -7 -102 -15z"/>
<path d="M890 1213 c-44 -19 -54 -89 -18 -123 16 -15 35 -20 75 -20 74 0 103
-28 103 -100 0 -44 5 -56 29 -81 35 -35 59 -36 96 -8 26 21 27 24 23 109 -3
74 -7 92 -31 128 -43 66 -98 95 -187 99 -41 1 -82 0 -90 -4z"/>
<path d="M529 896 c-190 -68 -240 -332 -87 -461 83 -70 206 -87 297 -40 210
106 202 398 -13 496 -48 22 -143 24 -197 5z m145 -151 c60 -29 83 -103 51
-165 -27 -53 -100 -75 -155 -47 -31 16 -70 73 -70 104 0 37 27 82 63 103 39
24 68 25 111 5z"/>
<path d="M91 408 c-39 -14 -50 -38 -51 -106 0 -94 33 -160 108 -211 30 -20 52
-26 119 -29 78 -4 83 -3 108 22 22 22 26 33 21 59 -9 47 -39 67 -101 67 -76 0
-95 19 -104 100 -4 36 -10 70 -14 77 -12 19 -60 31 -86 21z"/>
<path d="M1100 407 c-32 -16 -50 -52 -50 -103 0 -26 -7 -51 -21 -68 -18 -23
-28 -26 -78 -26 -71 0 -101 -25 -101 -83 0 -55 29 -70 128 -66 92 5 144 32
189 101 24 36 28 54 31 127 3 74 1 89 -15 102 -27 25 -55 30 -83 16z"/>
</g>
</svg>
